HIERARCHY
ROOT Hips
{
    OFFSET   0.000000   0.000000   0.000000
    CHANNELS 6 Xposition Yposition Zposition Zrotation Xrotation Yrotation
    JOINT Chest
    {
        OFFSET   0.000000   8.007230   0.000000
        CHANNELS 3 Zrotation Xrotation Yrotation
        JOINT Chest2
        {
            OFFSET   0.000000  22.077100   0.000000
            CHANNELS 3 Zrotation Xrotation Yrotation
            JOINT Neck
            {
                OFFSET   0.000000  23.255100   0.000000
                CHANNELS 3 Zrotation Xrotation Yrotation
                JOINT Head
                {
                    OFFSET   0.000000  14.370100   1.956600
                    CHANNELS 3 Zrotation Xrotation Yrotation
                    End Site
                    {
                        OFFSET   0.000000  19.566000   0.000000
                    }
                }
            }
            JOINT LeftCollar
            {
                OFFSET   3.911900  19.017000  -0.467063
                CHANNELS 3 Zrotation Xrotation Yrotation
                JOINT LeftShoulder
                {
                    OFFSET  10.383700   0.000000   0.000000
                    CHANNELS 3 Zrotation Xrotation Yrotation
                    JOINT LeftElbow
                    {
                        OFFSET  26.662100   0.001193   0.000980
                        CHANNELS 3 Zrotation Xrotation Yrotation
                        JOINT LeftWrist
                        {
                            OFFSET  28.869000  -0.000059  -0.000082
                            CHANNELS 3 Zrotation Xrotation Yrotation
                            JOINT LeftFinger0
                            {
                                OFFSET   2.044650  -2.323450   3.252850
                                CHANNELS 3 Zrotation Xrotation Yrotation
                                JOINT LeftFinger01
                                {
                                    OFFSET   3.088130   0.000000   0.000000
                                    CHANNELS 3 Zrotation Xrotation Yrotation
                                    JOINT LeftFinger02
                                    {
                                        OFFSET   2.639460   0.000000   0.000000
                                        CHANNELS 3 Zrotation Xrotation Yrotation
                                        End Site
                                        {
                                            OFFSET   2.582190   0.000000   0.000000
                                        }
                                    }
                                }
                            }
                            JOINT LeftFinger1
                            {
                                OFFSET   8.364480   0.000000   3.252850
                                CHANNELS 3 Zrotation Xrotation Yrotation
                                JOINT LeftFinger11
                                {
                                    OFFSET   4.646930   0.000000   0.000000
                                    CHANNELS 3 Zrotation Xrotation Yrotation
                                    JOINT LeftFinger12
                                    {
                                        OFFSET   2.323470   0.000000   0.000000
                                        CHANNELS 3 Zrotation Xrotation Yrotation
                                        End Site
                                        {
                                            OFFSET   2.273050   0.000000   0.000000
                                        }
                                    }
                                }
                            }
                            JOINT LeftFinger2
                            {
                                OFFSET   8.364490   0.000016   1.078090
                                CHANNELS 3 Zrotation Xrotation Yrotation
                                JOINT LeftFinger21
                                {
                                    OFFSET   5.111610   0.000000   0.000000
                                    CHANNELS 3 Zrotation Xrotation Yrotation
                                    JOINT LeftFinger22
                                    {
                                        OFFSET   2.788150   0.000016   0.000000
                                        CHANNELS 3 Zrotation Xrotation Yrotation
                                        End Site
                                        {
                                            OFFSET   2.727660   0.000000   0.000000
                                        }
                                    }
                                }
                            }
                            JOINT LeftFinger3
                            {
                                OFFSET   7.899780   0.000015  -1.078090
                                CHANNELS 3 Zrotation Xrotation Yrotation
                                JOINT LeftFinger31
                                {
                                    OFFSET   4.646930   0.000000   0.000000
                                    CHANNELS 3 Zrotation Xrotation Yrotation
                                    JOINT LeftFinger32
                                    {
                                        OFFSET   2.323470   0.000000   0.000000
                                        CHANNELS 3 Zrotation Xrotation Yrotation
                                        End Site
                                        {
                                            OFFSET   2.273050   0.000000   0.000000
                                        }
                                    }
                                }
                            }
                            JOINT LeftFinger4
                            {
                                OFFSET   7.435090   0.000000  -3.252850
                                CHANNELS 3 Zrotation Xrotation Yrotation
                                JOINT LeftFinger41
                                {
                                    OFFSET   3.717550   0.000000   0.000000
                                    CHANNELS 3 Zrotation Xrotation Yrotation
                                    JOINT LeftFinger42
                                    {
                                        OFFSET   1.858770   0.000000   0.000000
                                        CHANNELS 3 Zrotation Xrotation Yrotation
                                        End Site
                                        {
                                            OFFSET   1.818440   0.000000   0.000000
                                        }
                                    }
                                }
                            }
                        }
                    }
                }
            }
            JOINT RightCollar
            {
                OFFSET  -3.911910  19.017000  -0.467062
                CHANNELS 3 Zrotation Xrotation Yrotation
                JOINT RightShoulder
                {
                    OFFSET -10.383700   0.000014   0.000000
                    CHANNELS 3 Zrotation Xrotation Yrotation
                    JOINT RightElbow
                    {
                        OFFSET -26.662100   0.001225   0.001091
                        CHANNELS 3 Zrotation Xrotation Yrotation
                        JOINT RightWrist
                        {
                            OFFSET -28.869000  -0.000020  -0.000085
                            CHANNELS 3 Zrotation Xrotation Yrotation
                            JOINT RightFinger0
                            {
                                OFFSET  -2.044650  -2.323490   3.252850
                                CHANNELS 3 Zrotation Xrotation Yrotation
                                JOINT RightFinger01
                                {
                                    OFFSET  -3.088130   0.000000   0.000000
                                    CHANNELS 3 Zrotation Xrotation Yrotation
                                    JOINT RightFinger02
                                    {
                                        OFFSET  -2.639460   0.000000   0.000000
                                        CHANNELS 3 Zrotation Xrotation Yrotation
                                        End Site
                                        {
                                            OFFSET  -2.582190   0.000000   0.000000
                                        }
                                    }
                                }
                            }
                            JOINT RightFinger1
                            {
                                OFFSET  -8.364480   0.000000   3.252850
                                CHANNELS 3 Zrotation Xrotation Yrotation
                                JOINT RightFinger11
                                {
                                    OFFSET  -4.646930   0.000000   0.000000
                                    CHANNELS 3 Zrotation Xrotation Yrotation
                                    JOINT RightFinger12
                                    {
                                        OFFSET  -2.323470   0.000000   0.000000
                                        CHANNELS 3 Zrotation Xrotation Yrotation
                                        End Site
                                        {
                                            OFFSET  -2.273050   0.000000   0.000000
                                        }
                                    }
                                }
                            }
                            JOINT RightFinger2
                            {
                                OFFSET  -8.364480   0.000000   1.078090
                                CHANNELS 3 Zrotation Xrotation Yrotation
                                JOINT RightFinger21
                                {
                                    OFFSET  -5.111620   0.000000   0.000000
                                    CHANNELS 3 Zrotation Xrotation Yrotation
                                    JOINT RightFinger22
                                    {
                                        OFFSET  -2.788160   0.000000   0.000000
                                        CHANNELS 3 Zrotation Xrotation Yrotation
                                        End Site
                                        {
                                            OFFSET  -2.727660   0.000000   0.000000
                                        }
                                    }
                                }
                            }
                            JOINT RightFinger3
                            {
                                OFFSET  -7.899780   0.000000  -1.078090
                                CHANNELS 3 Zrotation Xrotation Yrotation
                                JOINT RightFinger31
                                {
                                    OFFSET  -4.646930   0.000000   0.000000
                                    CHANNELS 3 Zrotation Xrotation Yrotation
                                    JOINT RightFinger32
                                    {
                                        OFFSET  -2.323470   0.000000   0.000000
                                        CHANNELS 3 Zrotation Xrotation Yrotation
                                        End Site
                                        {
                                            OFFSET  -2.273050   0.000000   0.000000
                                        }
                                    }
                                }
                            }
                            JOINT RightFinger4
                            {
                                OFFSET  -7.435090   0.000000  -3.252850
                                CHANNELS 3 Zrotation Xrotation Yrotation
                                JOINT RightFinger41
                                {
                                    OFFSET  -3.717550   0.000000   0.000000
                                    CHANNELS 3 Zrotation Xrotation Yrotation
                                    JOINT RightFinger42
                                    {
                                        OFFSET  -1.858760   0.000000   0.000000
                                        CHANNELS 3 Zrotation Xrotation Yrotation
                                        End Site
                                        {
                                            OFFSET  -1.818440   0.000000   0.000000
                                        }
                                    }
                                }
                            }
                        }
                    }
                }
            }
        }
    }
    JOINT LeftHip
    {
        OFFSET   9.783030   0.000000   0.000000
        CHANNELS 3 Zrotation Xrotation Yrotation
        JOINT LeftKnee
        {
            OFFSET   0.000063 -41.789100   0.000608
            CHANNELS 3 Zrotation Xrotation Yrotation
            JOINT LeftAnkle
            {
                OFFSET   0.000048 -41.133200  -0.000184
                CHANNELS 3 Zrotation Xrotation Yrotation
                JOINT LeftToe
                {
                    OFFSET   0.000000  -6.358960  14.674500
                    CHANNELS 3 Zrotation Xrotation Yrotation
                    End Site
                    {
                        OFFSET   0.000000   0.000000   3.913200
                    }
                }
            }
        }
    }
    JOINT RightHip
    {
        OFFSET  -9.783030   0.000000   0.000000
        CHANNELS 3 Zrotation Xrotation Yrotation
        JOINT RightKnee
        {
            OFFSET   0.000071 -41.789100   0.001239
            CHANNELS 3 Zrotation Xrotation Yrotation
            JOINT RightAnkle
            {
                OFFSET   0.000037 -41.133200  -0.000166
                CHANNELS 3 Zrotation Xrotation Yrotation
                JOINT RightToe
                {
                    OFFSET   0.000000  -6.358960  14.674500
                    CHANNELS 3 Zrotation Xrotation Yrotation
                    End Site
                    {
                        OFFSET   0.000000   0.000000   3.913200
                    }
                }
            }
        }
    }
}
MOTION
Frames: 6
Frame Time:   0.016667
 -5.295050  88.815400   2.816920   1.512070 -17.696900   1.769840  -1.180940   5.998760   1.474240  -2.541470  11.963800   3.098870   3.378320  -5.080690   0.299446   5.671580 -10.195000   5.644640   4.149720  -7.087480 -10.577800 -40.046200  -5.270220 -95.394000   4.574810 -30.506300 -59.699800  12.401700  -5.485380  24.881800  64.886600  49.926900 -100.039000 -21.981500  -0.002708   0.004928  -5.990730  -0.000065  -0.002165 -56.573800   2.727130  -1.800840 -46.323500   0.001983  -0.005011 -34.742700   0.001790  -0.002110 -54.153500  -3.370740   2.432520 -54.219400   0.001266  -0.005912 -40.665700   0.004093  -0.003548 -42.663000  -5.786310   6.244270 -54.431900  -0.006386  -0.000287 -38.138100   0.000140  -0.013815 -53.907400  -6.891950   4.998680 -81.312900   0.003870  -0.002859 -54.154300   0.005770  -0.002422   4.205110 -16.866500   5.383820  45.316600 -23.013500 111.630000 -23.130100   0.457967  31.358200  53.271200  62.400400 -45.896500 -44.684400  43.571700  83.216200  30.046100   0.000622  -0.000376  10.023100   0.000765  -0.003887  23.685500   1.766520   4.001360  19.429900  -0.000637   0.001189  13.600900   0.004759   0.001021  23.646800  -1.094620  -2.487840  23.426800   0.001511  -0.001187  15.602200   0.000731  -0.000983  27.946000  -5.110880  -9.535510  34.521900   0.000004   0.002659  22.991600   0.004936   0.000329  31.689400  -5.757290  -9.181240  48.216100  -0.004468   0.010178  32.111900   0.000853   0.004930   1.710420  11.500300   3.024310   0.730502  15.781100   9.345590  -9.048990  -9.417750  -0.854227   0.000000   0.000000   0.000000   6.478220  15.546200  -5.624650  -0.823759   7.881130  -9.826900 -11.642500  -5.077560  -3.651160   0.000000   0.000000   0.000000
 -5.338280  88.843100   2.842310   1.494390 -17.604600   1.677840  -1.185640   5.871660   1.547830  -2.551410  11.707500   3.243830   3.359880  -4.898690   0.287167   5.632800  -9.830920   5.558830   4.140790  -6.721210 -10.543200 -39.982500  -5.257230 -95.401200   4.588610 -30.492100 -59.837500  12.200900  -5.342820  24.809200  64.653600  49.883000 -99.839900 -22.036000  -0.002708   0.004771  -6.017960  -0.000063  -0.002109 -56.465000   2.707890  -1.793430 -46.233500   0.001982  -0.005090 -34.675100   0.001788  -0.002154 -54.094900  -3.377610   2.442570 -54.160100   0.001266  -0.005896 -40.621500   0.004160  -0.003600 -42.572500  -5.781560   6.257840 -54.431300  -0.006458  -0.000240 -38.113600   0.000173  -0.013903 -53.861200  -6.891720   5.007810 -81.244300   0.003847  -0.002908 -54.108700   0.005706  -0.002465   4.325890 -16.228500   5.440020  44.774100 -22.933700 110.889000 -23.471100  -0.046904  31.883400  52.305300  62.762100 -44.826500 -43.331800  43.344400  83.011400  31.154900   0.000603  -0.000412  10.577500   0.000882  -0.003784  25.688500   1.638380   3.442920  21.057800  -0.000636   0.001064  14.740400   0.004757   0.001033  24.775900  -1.382950  -2.953620  24.761800   0.001383  -0.001179  16.491300   0.000668  -0.000944  27.996200  -5.094950  -9.483040  35.273200  -0.000244   0.003947  23.491900   0.004860   0.000495  32.899000  -5.890440  -9.013830  50.045500  -0.002008   0.009966  33.330300   0.001001   0.002744   1.691540  11.485300   2.946020   0.736214  15.707600   9.374700  -9.050470  -9.390930  -0.709221  -0.000000   0.000000  -0.000000   6.461270  15.468300  -5.586620  -0.781977   7.837110  -9.910550 -11.647400  -5.071720  -3.491840  -0.000000   0.000000   0.000000
 -5.354630  88.874100   2.904990   1.506500 -17.513300   1.606620  -1.176780   5.667840   1.608650  -2.529950  11.298900   3.359190   3.318430  -4.644670   0.269145   5.551840  -9.323430   5.446780   4.067950  -6.052020 -10.508300 -39.908900  -5.257880 -95.363000   4.636150 -30.518700 -59.991500  12.033700  -5.229300  24.731400  64.607700  49.852200 -99.772300 -22.014300  -0.002715   0.004588  -6.007140  -0.000063  -0.002047 -56.362800   2.741250  -1.821030 -46.150800   0.001983  -0.005173 -34.613000   0.001785  -0.002197 -54.028900  -3.385190   2.453810 -54.101600   0.001261  -0.005878 -40.576200   0.004228  -0.003650 -42.472600  -5.775380   6.272920 -54.430700  -0.006522  -0.000192 -38.086500   0.000208  -0.013992 -53.797400  -6.891490   5.019470 -81.149700   0.003832  -0.002955 -54.045700   0.005645  -0.002514   4.312650 -15.388400   5.439770  44.308100 -22.869400 110.239000 -23.715600  -0.436386  32.162200  52.022800  62.776100 -44.687200 -42.712300  43.144500  82.631900  31.805700   0.000548  -0.000330  10.902800   0.001112  -0.003690  27.348200   1.514860   2.961390  22.407600  -0.000636   0.000932  15.685300   0.004757   0.001071  26.118100  -1.660200  -3.354520  26.231100   0.001136  -0.001165  17.469800   0.000555  -0.000885  28.124500  -5.063560  -9.376730  36.774000  -0.000595   0.004474  24.491500   0.004775   0.000766  33.674200  -5.949100  -8.844340  51.202000  -0.001612   0.009757  34.100500   0.001131   0.002750   1.640210  11.412600   2.870620   0.739562  15.708200   9.415370  -9.043240  -9.360690  -0.590136  -0.000000   0.000000   0.000000   6.414880  15.386900  -5.576980  -0.749670   7.810740 -10.006400 -11.652100  -5.065370  -3.314390   0.000000   0.000000  -0.000000
 -5.357880  88.904300   2.950050   1.521450 -17.425800   1.539440  -1.161650   5.463550   1.651220  -2.498850  10.889900   3.437410   3.270470  -4.397050   0.251154   5.460980  -8.828760   5.385700   3.981050  -5.342220 -10.450200 -39.779000  -5.259680 -95.290200   4.715450 -30.563100 -60.137900  11.906000  -5.101570  24.640200  64.632900  49.838100 -99.759300 -21.979600  -0.002721   0.004401  -5.989800  -0.000063  -0.001979 -56.260800   2.788840  -1.861330 -46.068700   0.001983  -0.005257 -34.551500   0.001782  -0.002240 -53.941200  -3.392520   2.467210 -54.050400   0.001256  -0.005860 -40.530200   0.004294  -0.003701 -42.354700  -5.767940   6.290710 -54.430100  -0.006584  -0.000145 -38.054400   0.000240  -0.014082 -53.717700  -6.891300   5.033760 -81.031500   0.003817  -0.003002 -53.967000   0.005586  -0.002563   4.241080 -14.529300   5.433110  43.865700 -22.851700 109.645000 -23.839100  -0.802459  32.247400  51.726000  62.753600 -44.620300 -42.061500  42.977400  82.205800  32.318500   0.000465  -0.000185  11.159200   0.001339  -0.003604  28.575100   1.406000   2.568670  23.405900  -0.000636   0.000784  16.384100   0.004756   0.001119  27.066700  -1.817180  -3.565400  27.512400   0.000899  -0.001152  18.323200   0.000450  -0.000834  28.250300  -5.031820  -9.271040  38.270900  -0.000783   0.004638  25.488500   0.004685   0.000989  34.263100  -5.978290  -8.693420  52.077000  -0.001486   0.009519  34.683300   0.001240   0.002755   1.583600  11.303100   2.825450   0.746227  15.722400   9.456590  -9.029830  -9.332610  -0.493928   0.000000   0.000000  -0.000000   6.351840  15.305900  -5.573750  -0.725868   7.790000 -10.095900 -11.647700  -5.057270  -3.132910   0.000000   0.000000   0.000000
 -5.359760  88.928400   2.947110   1.520110 -17.348500   1.478500  -1.153150   5.334220   1.674590  -2.479240  10.631000   3.479810   3.221080  -4.225610   0.238115   5.371860  -8.486070   5.384890   3.919700  -4.792670 -10.342000 -39.656900  -5.257800 -95.212900   4.831560 -30.620600 -60.262400  11.871700  -4.926690  24.525800  64.773700  49.858200 -99.846200 -21.949100  -0.002713   0.004228  -5.974560  -0.000068  -0.001903 -56.167500   2.812400  -1.884500 -45.992900   0.001982  -0.005341 -34.494700   0.001774  -0.002286 -53.810100  -3.398040   2.484190 -54.023500   0.001256  -0.005843 -40.488800   0.004355  -0.003762 -42.209500  -5.758490   6.312530 -54.429500  -0.006645  -0.000103 -38.014500   0.000263  -0.014176 -53.618800  -6.891110   5.051420 -80.884800   0.003790  -0.003054 -53.869300   0.005522  -0.002608   4.171380 -13.897700   5.444220  43.377900 -22.908600 109.086000 -23.837500  -1.147210  32.095600  51.556100  62.467300 -44.683700 -41.616200  42.810700  81.828200  32.730400   0.000367  -0.000012  11.365100   0.001562  -0.003525  28.926400   1.351930   2.426900  23.691000  -0.000636   0.000628  16.583700   0.004755   0.001169  27.201100  -1.788010  -3.493310  28.001400   0.000676  -0.001135  18.648900   0.000352  -0.000781  28.298000  -5.014480  -9.221300  39.004300  -0.000839   0.004932  25.976900   0.004591   0.001177  34.654000  -6.007980  -8.610090  52.660100  -0.001253   0.009252  35.071700   0.001326   0.002750   1.548850  11.193400   2.841840   0.747113  15.768300   9.485690  -9.008640  -9.302830  -0.456195  -0.000000   0.000000  -0.000000   6.312880  15.242100  -5.572580  -0.707630   7.760200 -10.188900 -11.632700  -5.048260  -2.969590  -0.000000   0.000000   0.000000
 -5.360020  88.947900   2.926550   1.508310 -17.273900   1.423170  -1.149290   5.278980   1.681280  -2.470120  10.520600   3.491310   3.179080  -4.138600   0.229577   5.298660  -8.314850   5.411260   3.870640  -4.519230 -10.206400 -39.530100  -5.242110 -95.101100   4.998490 -30.664200 -60.332900  11.913900  -4.704460  24.392000  64.909900  49.889800 -99.943300 -21.931700  -0.002704   0.004057  -5.965840  -0.000077  -0.001826 -56.092100   2.821730  -1.894980 -45.931600   0.001978  -0.005424 -34.448700   0.001769  -0.002331 -53.679900  -3.401220   2.500080 -54.014800   0.001256  -0.005827 -40.456200   0.004415  -0.003824 -42.074100  -5.749990   6.332830 -54.428900  -0.006705  -0.000065 -37.977200   0.000283  -0.014266 -53.524100  -6.890950   5.068170 -80.744200   0.003761  -0.003106 -53.775700   0.005460  -0.002654   4.121620 -13.432200   5.476330  42.868600 -23.007900 108.541000 -23.746600  -1.460870  31.798300  51.181700  62.048300 -44.499100 -41.312100  42.648300  81.460100  33.057000   0.000254   0.000097  11.528500   0.001782  -0.003449  29.021100   1.322040   2.383360  23.767300  -0.000638   0.000470  16.637100   0.004753   0.001221  27.227900  -1.724150  -3.349800  28.076100   0.000456  -0.001124  18.698700   0.000266  -0.000736  28.307000  -5.008020  -9.206170  39.241700  -0.000847   0.005189  26.135000   0.004492   0.001325  34.806500  -6.021310  -8.580870  52.887900  -0.001044   0.008956  35.223400   0.001391   0.002745   1.530980  11.085700   2.870630   0.741579  15.817000   9.509020  -8.983150  -9.286160  -0.442975  -0.000000   0.000000  -0.000000   6.283660  15.188400  -5.571680  -0.698452   7.719060 -10.240100 -11.619700  -5.032280  -2.839630  -0.000000   0.000000   0.000000
